<mxfile host="app.diagrams.net" modified="2023-10-07T08:44:16.962Z" agent="Mozilla/5.0 (Windows NT 10.0; Win64; x64) AppleWebKit/537.36 (KHTML, like Gecko) Chrome/117.0.0.0 Safari/537.36 Edg/117.0.2045.47" etag="rDtqCMGNFyf9Kd-oY2hH" version="22.0.3" type="device">
  <diagram name="Page-1" id="KeZGKszFKAdpuFeCQ8KC">
    <mxGraphModel dx="2019" dy="1103" grid="1" gridSize="10" guides="1" tooltips="1" connect="1" arrows="1" fold="1" page="1" pageScale="1" pageWidth="850" pageHeight="1100" math="0" shadow="0">
      <root>
        <mxCell id="0" />
        <mxCell id="1" parent="0" />
        <mxCell id="LNhjMXI2DYm9D7kMFNGj-1" value="START" style="rounded=1;whiteSpace=wrap;html=1;labelBackgroundColor=none;labelBorderColor=none;fillColor=#d5e8d4;strokeColor=#82b366;fontColor=default;" parent="1" vertex="1">
          <mxGeometry x="320" y="40" width="120" height="60" as="geometry" />
        </mxCell>
        <mxCell id="LNhjMXI2DYm9D7kMFNGj-3" value="" style="endArrow=classic;html=1;rounded=0;exitX=0.5;exitY=1;exitDx=0;exitDy=0;" parent="1" source="LNhjMXI2DYm9D7kMFNGj-1" edge="1">
          <mxGeometry width="50" height="50" relative="1" as="geometry">
            <mxPoint x="400" y="590" as="sourcePoint" />
            <mxPoint x="380" y="210" as="targetPoint" />
          </mxGeometry>
        </mxCell>
        <mxCell id="LNhjMXI2DYm9D7kMFNGj-4" value="Height &amp;gt; 120" style="rhombus;whiteSpace=wrap;html=1;" parent="1" vertex="1">
          <mxGeometry x="310" y="210" width="140" height="80" as="geometry" />
        </mxCell>
        <mxCell id="LNhjMXI2DYm9D7kMFNGj-5" value="NO" style="edgeStyle=segmentEdgeStyle;endArrow=classic;html=1;curved=0;rounded=0;endSize=8;startSize=8;align=left;" parent="1" edge="1">
          <mxGeometry width="50" height="50" relative="1" as="geometry">
            <mxPoint x="310" y="250" as="sourcePoint" />
            <mxPoint x="220" y="320" as="targetPoint" />
          </mxGeometry>
        </mxCell>
        <mxCell id="LNhjMXI2DYm9D7kMFNGj-6" value="YES" style="edgeStyle=segmentEdgeStyle;endArrow=classic;html=1;curved=0;rounded=0;endSize=8;startSize=8;" parent="1" edge="1">
          <mxGeometry width="50" height="50" relative="1" as="geometry">
            <mxPoint x="450" y="250" as="sourcePoint" />
            <mxPoint x="550" y="320" as="targetPoint" />
            <Array as="points">
              <mxPoint x="550" y="250" />
              <mxPoint x="550" y="310" />
            </Array>
          </mxGeometry>
        </mxCell>
        <mxCell id="LNhjMXI2DYm9D7kMFNGj-7" value="CAN&#39;T RIDE" style="ellipse;whiteSpace=wrap;html=1;" parent="1" vertex="1">
          <mxGeometry x="160" y="320" width="120" height="80" as="geometry" />
        </mxCell>
        <mxCell id="LNhjMXI2DYm9D7kMFNGj-8" value="CAN RIDE" style="ellipse;whiteSpace=wrap;html=1;" parent="1" vertex="1">
          <mxGeometry x="490" y="320" width="120" height="80" as="geometry" />
        </mxCell>
        <mxCell id="LNhjMXI2DYm9D7kMFNGj-9" value="" style="endArrow=classic;html=1;rounded=0;" parent="1" edge="1">
          <mxGeometry width="50" height="50" relative="1" as="geometry">
            <mxPoint x="549.5" y="400" as="sourcePoint" />
            <mxPoint x="549.5" y="480" as="targetPoint" />
          </mxGeometry>
        </mxCell>
        <mxCell id="LNhjMXI2DYm9D7kMFNGj-17" value="" style="edgeStyle=orthogonalEdgeStyle;rounded=0;orthogonalLoop=1;jettySize=auto;html=1;" parent="1" source="LNhjMXI2DYm9D7kMFNGj-10" target="LNhjMXI2DYm9D7kMFNGj-15" edge="1">
          <mxGeometry relative="1" as="geometry" />
        </mxCell>
        <mxCell id="LNhjMXI2DYm9D7kMFNGj-10" value="AGE" style="rhombus;whiteSpace=wrap;html=1;" parent="1" vertex="1">
          <mxGeometry x="480" y="480" width="140" height="80" as="geometry" />
        </mxCell>
        <mxCell id="LNhjMXI2DYm9D7kMFNGj-11" value="12-18" style="endArrow=classic;html=1;rounded=0;" parent="1" edge="1">
          <mxGeometry width="50" height="50" relative="1" as="geometry">
            <mxPoint x="549.5" y="560" as="sourcePoint" />
            <mxPoint x="549.5" y="640" as="targetPoint" />
          </mxGeometry>
        </mxCell>
        <mxCell id="LNhjMXI2DYm9D7kMFNGj-12" value="OVER 18" style="edgeStyle=segmentEdgeStyle;endArrow=classic;html=1;curved=0;rounded=0;endSize=8;startSize=8;" parent="1" edge="1">
          <mxGeometry width="50" height="50" relative="1" as="geometry">
            <mxPoint x="620" y="520" as="sourcePoint" />
            <mxPoint x="730" y="580" as="targetPoint" />
            <Array as="points">
              <mxPoint x="730" y="520" />
              <mxPoint x="730" y="580" />
            </Array>
          </mxGeometry>
        </mxCell>
        <mxCell id="LNhjMXI2DYm9D7kMFNGj-13" value="UNDER 5" style="edgeStyle=segmentEdgeStyle;endArrow=classic;html=1;curved=0;rounded=0;endSize=8;startSize=8;" parent="1" edge="1">
          <mxGeometry width="50" height="50" relative="1" as="geometry">
            <mxPoint x="480" y="520" as="sourcePoint" />
            <mxPoint x="370" y="580" as="targetPoint" />
            <Array as="points">
              <mxPoint x="480" y="520" />
            </Array>
          </mxGeometry>
        </mxCell>
        <mxCell id="LNhjMXI2DYm9D7kMFNGj-14" value="PAY 5$" style="ellipse;whiteSpace=wrap;html=1;" parent="1" vertex="1">
          <mxGeometry x="310" y="580" width="120" height="80" as="geometry" />
        </mxCell>
        <mxCell id="LNhjMXI2DYm9D7kMFNGj-15" value="PAY 7$" style="ellipse;whiteSpace=wrap;html=1;" parent="1" vertex="1">
          <mxGeometry x="490" y="640" width="120" height="80" as="geometry" />
        </mxCell>
        <mxCell id="LNhjMXI2DYm9D7kMFNGj-16" value="PAY 12$" style="ellipse;whiteSpace=wrap;html=1;" parent="1" vertex="1">
          <mxGeometry x="670" y="580" width="120" height="80" as="geometry" />
        </mxCell>
      </root>
    </mxGraphModel>
  </diagram>
</mxfile>
